<svg xmlns="http://www.w3.org/2000/svg" xmlns:xlink="http://www.w3.org/1999/xlink" version="1.1" width="40" height="40" enable-background="new 0 0 40 40" xml:space="preserve" style=""><rect id="backgroundrect" width="100%" height="100%" x="0" y="0" fill="none" stroke="none"/>


<g class="currentLayer" style=""><title>Layer 1</title><path fill="#ffffff" fill-opacity="1" stroke="none" stroke-opacity="1" stroke-width="1" stroke-dasharray="none" stroke-linejoin="miter" stroke-linecap="butt" stroke-dashoffset="" fill-rule="nonzero" opacity="1" marker-start="" marker-mid="" marker-end="" d="M1.9591836080142666,19.959181927444018 C1.9591836080142666,9.946778965486123 10.055530533813688,1.8367325663002294 20.051020565664828,1.8367325663002294 C30.046510597515965,1.8367325663002294 38.142857523315385,9.946778965486123 38.142857523315385,19.959181927444018 C38.142857523315385,29.971584889401914 30.046510597515965,38.081631288587815 20.051020565664828,38.081631288587815 C10.055530533813688,38.081631288587815 1.9591836080142666,29.971584889401914 1.9591836080142666,19.959181927444018 z" id="svg_15" class="selected"/><path fill="#181818" d="M20,2c9.925,0,18,8.075,18,18s-8.075,18-18,18S2,29.925,2,20S10.075,2,20,2 M20,0C8.954,0,0,8.954,0,20  s8.954,20,20,20s20-8.954,20-20S31.046,0,20,0L20,0z" id="svg_1" class=""/><g id="svg_2" class="">
	<path fill="#181818" d="M12.274,26.1l0.633-0.809h5.687v2.074h-7.26v-1.151h-0.958V13.777h0.958v-1.151h6.794v2.065h-5.854v4.922   l0.633-0.809h4.342v2.074h-4.975V26.1z" id="svg_3"/>
	<path fill="#181818" d="M29.624,12.626v14.739l-1.89,0.009l-0.018-1.556l-0.659,0.756l-4.887-9.826v10.617h-1.898V12.626h1.898   v1.679l0.624-0.791l4.931,9.923V12.626H29.624z" id="svg_4"/>
</g></g></svg>