<?xml version="1.0" encoding="utf-8"?>
<!-- Generator: Adobe Illustrator 17.0.0, SVG Export Plug-In . SVG Version: 6.00 Build 0)  -->
<!DOCTYPE svg PUBLIC "-//W3C//DTD SVG 1.1//EN" "http://www.w3.org/Graphics/SVG/1.1/DTD/svg11.dtd">
<svg version="1.1" id="Calque_1" xmlns="http://www.w3.org/2000/svg" xmlns:xlink="http://www.w3.org/1999/xlink" x="0px" y="0px"
	 width="42px" height="42px" viewBox="-1.5 -1.5 42 42" enable-background="new -1.5 -1.5 42 42" xml:space="preserve">
<rect x="-1.5" y="-1.263" fill="#FFFFFF" width="42" height="41.763"/>
<g transform="translate(0,-952.36218)">
	<path fill="#262626" d="M-23.876,943.565c-3.063,0-5.569,2.506-5.569,5.569s2.506,5.569,5.569,5.569s5.569-2.506,5.569-5.569
		S-20.813,943.565-23.876,943.565z M-23.876,945.686c1.917,0,3.447,1.531,3.447,3.447c0,1.917-1.531,3.448-3.447,3.448
		s-3.447-1.531-3.447-3.448C-27.323,947.217-25.793,945.686-23.876,945.686z M-23.876,956.294c-5.846,0-10.608,4.762-10.608,10.608
		h2.122c0-4.699,3.787-8.486,8.486-8.486s8.486,3.787,8.486,8.486h2.122C-13.268,961.056-18.03,956.294-23.876,956.294
		L-23.876,956.294z"/>
</g>
<g>
	<path fill="none" stroke="#181818" stroke-width="1.4" stroke-miterlimit="10" d="M44.092,28.826c0-3.911,3.014-7.08,6.732-7.08
		s6.732,3.17,6.732,7.08"/>
	<circle fill="none" stroke="#181818" stroke-width="1.4" stroke-miterlimit="10" cx="50.823" cy="16.237" r="3.278"/>
</g>
<line fill="none" stroke="#181818" stroke-width="1.4" stroke-miterlimit="10" x1="19.869" y1="-17.755" x2="17.369" y2="-10.77"/>
<line fill="none" stroke="#181818" stroke-width="1.4" stroke-miterlimit="10" x1="26.841" y1="-17.755" x2="29.341" y2="-10.77"/>
<g>
	<g>
		<circle fill="none" stroke="#181818" stroke-width="1.3" stroke-miterlimit="10" cx="-23.377" cy="38.707" r="3.063"/>
		<path fill="none" stroke="#181818" stroke-width="1.3" stroke-miterlimit="10" d="M-29.693,52.341
			c0-4.398,2.828-7.964,6.316-7.964s6.316,3.566,6.316,7.964"/>
	</g>
	<rect x="-31.315" y="50.555" fill="#FFFFFF" width="16.125" height="5.062"/>
</g>
<g>
	<path fill="#FFFFFF" stroke="#000000" stroke-width="1.4" stroke-miterlimit="10" d="M11.544,28.862
		c0-4.394,3.562-7.956,7.956-7.956s7.956,3.562,7.956,7.956"/>
	<circle fill="#FFFFFF" stroke="#000000" stroke-width="1.4" stroke-miterlimit="10" cx="19.5" cy="13.888" r="3.749"/>
</g>
</svg>
