<?xml version="1.0" encoding="utf-8"?>
<!-- Generator: Adobe Illustrator 17.0.0, SVG Export Plug-In . SVG Version: 6.00 Build 0)  -->
<!DOCTYPE svg PUBLIC "-//W3C//DTD SVG 1.1//EN" "http://www.w3.org/Graphics/SVG/1.1/DTD/svg11.dtd">
<svg version="1.1" id="Calque_1" xmlns="http://www.w3.org/2000/svg" xmlns:xlink="http://www.w3.org/1999/xlink" x="0px" y="0px"
	 width="40px" height="40px" viewBox="0 0 40 40" enable-background="new 0 0 40 40" xml:space="preserve">
<g>
	<path fill="#FFFFFF" d="M20,39C9.523,39,1,30.477,1,20S9.523,1,20,1s19,8.523,19,19S30.477,39,20,39z"/>
	<g>
		<path fill="#262626" d="M20,2c9.925,0,18,8.075,18,18s-8.075,18-18,18S2,29.925,2,20S10.075,2,20,2 M20,0C8.954,0,0,8.954,0,20
			s8.954,20,20,20s20-8.954,20-20S31.046,0,20,0L20,0z"/>
	</g>
</g>
<g transform="translate(0,-952.36218)">
	<path fill="#262626" d="M20,958.694c-3.063,0-5.569,2.506-5.569,5.569s2.506,5.569,5.569,5.569s5.569-2.506,5.569-5.569
		S23.063,958.694,20,958.694z M20,960.815c1.917,0,3.447,1.531,3.447,3.447c0,1.917-1.531,3.448-3.447,3.448
		s-3.447-1.531-3.447-3.448C16.553,962.346,18.083,960.815,20,960.815z M20,971.423c-5.846,0-10.608,4.762-10.608,10.608h2.122
		c0-4.699,3.787-8.486,8.486-8.486s8.486,3.787,8.486,8.486h2.122C30.608,976.185,25.846,971.423,20,971.423L20,971.423z"/>
</g>
</svg>
