<?xml version="1.0" encoding="utf-8"?>
<!-- Generator: Adobe Illustrator 17.0.0, SVG Export Plug-In . SVG Version: 6.00 Build 0)  -->
<!DOCTYPE svg PUBLIC "-//W3C//DTD SVG 1.1//EN" "http://www.w3.org/Graphics/SVG/1.1/DTD/svg11.dtd">
<svg version="1.1" id="Calque_1" xmlns="http://www.w3.org/2000/svg" xmlns:xlink="http://www.w3.org/1999/xlink" x="0px" y="0px"
	 width="42px" height="42px" viewBox="-3.5 -3.5 42 42" enable-background="new -3.5 -3.5 42 42" xml:space="preserve">
<rect x="-3.5" y="-3.5" fill="#FFFFFF" width="42" height="42"/>
<g>
	<path d="M-41.007-6.917h6.533v1.062h-5.454v3.802h4.416v1.087h-4.416v4.009h5.429V4.13h-6.508
		C-41.007,4.13-41.007-6.917-41.007-6.917z"/>
	<path d="M-32.001-6.917l4.864,8.857v-8.857h1.087V4.131h-1.021l-4.864-8.865v8.865h-1.087V-6.917H-32.001z"/>
</g>
<g>
	<path d="M-43.81,7.491h8.454v1.375h-7.058v4.92h5.715v1.407h-5.715v5.188h7.025v1.407h-8.422L-43.81,7.491L-43.81,7.491z"/>
	<path d="M-28.631,11.068c1.188,0,2.123,0.53,2.804,1.59c0.293,0.458,0.481,0.942,0.564,1.45c0.082,0.509,0.124,1.125,0.124,1.848
		v5.833h-1.407v-5.833c0-1.174-0.125-1.991-0.376-2.449c-0.165-0.293-0.365-0.524-0.602-0.693c-0.236-0.168-0.569-0.285-0.999-0.349
		c-0.251-0.021-0.507-0.034-0.768-0.038c-0.262-0.003-0.518,0.05-0.768,0.161c-0.251,0.111-0.475,0.258-0.671,0.44
		c-0.197,0.183-0.354,0.446-0.473,0.79s-0.177,0.745-0.177,1.203v6.768h-1.407V11.068h1.214l0.193,0.956
		C-30.622,11.387-29.705,11.068-28.631,11.068z"/>
</g>
<rect x="-105.506" y="17.847" fill="none" width="66.267" height="53.014"/>
<text transform="matrix(1 0 0 1 -105.5059 36.0439)" font-family="'Whois-mono'" font-size="28">En</text>
<rect x="-16.5" y="-22.875" fill="none" width="32.5" height="18.75"/>
<text transform="matrix(1 0 0 1 -31.3333 -17.1546)" font-family="'Aileron-Regular'" font-size="16">?</text>
<rect x="28.5" y="-25.667" fill="none" width="32.5" height="18.75"/>
<text transform="matrix(1 0 0 1 28.5 -12.3472)" font-family="'IBMPlexMono'" font-size="18">?</text>
<rect x="55.25" y="9.318" fill="none" width="32.5" height="18.75"/>
<text transform="matrix(1 0 0 1 55.25 22.6378)" font-family="'IBMPlexMono'" font-size="18">Fr</text>
<rect x="43.625" y="33.443" fill="none" width="32.5" height="18.75"/>
<text transform="matrix(1 0 0 1 51.125 2.0128)" font-family="'IBMPlexMono'" font-size="16">En</text>
<rect x="50.375" y="-10.333" fill="none" width="31.5" height="25.708"/>
<g>
	<path d="M-19.244,62.924c0.139-0.138,0.621-0.138,0.76,0c-0.03,0.627-0.047,1.149-0.047,1.885c0,0.754,0,1.196,0.047,1.932
		c-0.139,0.138-0.621,0.138-0.76,0c-0.068-0.989-0.138-1.495-2.092-1.495h-2.484v5.22c0,0.598,0.322,0.943,0.828,0.943h4.438
		c1.747,0,2.552-1.265,3.013-2.828c0.299-0.069,0.574-0.023,0.805,0.115c-0.185,1.104-0.529,2.553-0.852,3.656
		c0,0-1.84-0.046-2.943-0.046h-6.668c0,0-1.633,0.023-2.76,0.046c-0.138-0.138-0.138-0.713,0-0.851c1.609-0.069,2-0.184,2-2v-8.485
		c0-1.816-0.391-1.932-2-2c-0.138-0.138-0.138-0.713,0-0.851c1.15,0.023,2.736,0.046,2.736,0.046h7.818
		c0.553,0,0.736-0.023,1.127-0.092c0.068,0,0.092,0.023,0.092,0.069c0.046,0.184,0.391,2.277,0.506,3.173
		c-0.23,0.092-0.482,0.161-0.759,0.115c-0.506-1.518-0.874-2.346-2.599-2.346h-3.955c-0.552,0-0.828,0.437-0.828,0.966v4.323h2.484
		C-19.382,64.419-19.313,64.12-19.244,62.924z"/>
	<path d="M-4.455,61.038c0.805,0,1.481,0.306,1.909,0.782c0.598,0.667,0.69,1.817,0.69,3.082v4.507c0,1.886,0.252,1.999,1.77,2.093
		c0.115,0.138,0.115,0.713,0,0.851c-0.988-0.023-1.84-0.046-2.781-0.046c-0.92,0-1.449,0.023-2.415,0.046
		c-0.115-0.138-0.115-0.713,0-0.851c1.196-0.115,1.426-0.207,1.426-2.093v-4.576c0-0.69-0.069-1.334-0.345-1.771
		c-0.32-0.503-0.76-0.828-1.219-0.828c-1.403,0-2.691,0.966-3.564,1.816c-0.184,0.207-0.391,0.483-0.391,0.966v4.392
		c0,1.886,0.207,1.978,1.379,2.093c0.139,0.138,0.139,0.713,0,0.851c-0.965-0.023-1.494-0.046-2.391-0.046
		c-0.989,0-1.887,0.023-2.829,0.046c-0.138-0.138-0.138-0.713,0-0.851c1.61-0.141,1.84-0.207,1.84-2.093v-5.564
		c0-1.334-0.253-1.449-1.495-1.564c-0.045-0.138-0.092-0.506-0.045-0.644c1.586-0.207,2.438-0.414,3.08-0.667
		c0.185,0,0.229,0.078,0.276,0.184c0.108,0.237,0.185,0.802,0.185,2.208c0,0.322,0.138,0.092,0.207,0
		C-7.766,61.797-6.294,61.038-4.455,61.038z"/>
</g>
<g enable-background="new    ">
	<path d="M-30.945,41.871h-9.182V28.068h8.982v1.4h-7.262v4.801h6.662v1.4h-6.662v4.801h7.462
		C-30.945,40.47-30.945,41.871-30.945,41.871z"/>
	<path d="M-18.945,35.91v5.961h-1.72V36.03c0-0.542,0-0.981-0.04-1.521c-0.101-1.24-0.78-2.161-2.421-2.161
		c-1.66,0-3.061,1.24-3.061,4.862v4.661h-1.72V31.268h1.72v1.82l0.661-1.22c0.9-0.7,1.68-0.881,2.761-0.881
		c2.32,0,3.621,1.241,3.78,3.102C-18.945,34.63-18.945,35.049-18.945,35.91z"/>
</g>
<g enable-background="new    ">
	<path d="M-2.705-8.95h-8.214V-21.3h8.035v1.253h-6.497v4.295h5.959v1.252h-5.959v4.295h6.676C-2.705-10.203-2.705-8.95-2.705-8.95z
		"/>
	<path d="M8.027-14.283v5.333H6.489v-5.226c0-0.484,0-0.877-0.036-1.361c-0.089-1.109-0.698-1.933-2.166-1.933
		c-1.486,0-2.739,1.109-2.739,4.349v4.169H0.01v-9.485h1.538v1.629l0.59-1.092c0.805-0.627,1.503-0.787,2.47-0.787
		c2.075,0,3.238,1.109,3.381,2.773C8.027-15.429,8.027-15.053,8.027-14.283z"/>
</g>
<g enable-background="new    ">
	<path d="M9.356,23.084V11.916h6.881v1.168h-5.536v3.76h5.344v1.168h-5.344v3.904h5.536v1.168H9.356z"/>
	<path d="M19.084,23.084v-8.256h1.279v1.344h0.064c0.085-0.202,0.191-0.397,0.32-0.584c0.127-0.187,0.285-0.35,0.472-0.488
		c0.187-0.138,0.407-0.25,0.664-0.336c0.256-0.085,0.554-0.128,0.896-0.128c0.864,0,1.558,0.275,2.08,0.824
		c0.523,0.55,0.784,1.325,0.784,2.328v5.296h-1.28v-5.072c0-0.757-0.165-1.319-0.496-1.688c-0.33-0.368-0.815-0.552-1.455-0.552
		c-0.256,0-0.508,0.031-0.752,0.096c-0.246,0.063-0.465,0.16-0.656,0.288c-0.192,0.128-0.348,0.293-0.465,0.496
		c-0.117,0.202-0.176,0.438-0.176,0.704v5.728H19.084z"/>
</g>
</svg>
