<?xml version="1.0" encoding="utf-8"?>
<!-- Generator: Adobe Illustrator 17.0.0, SVG Export Plug-In . SVG Version: 6.00 Build 0)  -->
<!DOCTYPE svg PUBLIC "-//W3C//DTD SVG 1.1//EN" "http://www.w3.org/Graphics/SVG/1.1/DTD/svg11.dtd">
<svg version="1.1" id="Calque_1" xmlns="http://www.w3.org/2000/svg" xmlns:xlink="http://www.w3.org/1999/xlink" x="0px" y="0px"
	 width="40px" height="40px" viewBox="0 0 40 40" enable-background="new 0 0 40 40" xml:space="preserve">
<path fill="#181818" d="M20,2c9.925,0,18,8.075,18,18s-8.075,18-18,18S2,29.925,2,20S10.075,2,20,2 M20,0C8.954,0,0,8.954,0,20
	s8.954,20,20,20s20-8.954,20-20S31.046,0,20,0L20,0z"/>
<g>
	<path fill="#181818" d="M12.274,26.1l0.633-0.809h5.687v2.074h-7.26v-1.151h-0.958V13.777h0.958v-1.151h6.794v2.065h-5.854v4.922
		l0.633-0.809h4.342v2.074h-4.975V26.1z"/>
	<path fill="#181818" d="M29.624,12.626v14.739l-1.89,0.009l-0.018-1.556l-0.659,0.756l-4.887-9.826v10.617h-1.898V12.626h1.898
		v1.679l0.624-0.791l4.931,9.923V12.626H29.624z"/>
</g>
</svg>
