<?xml version="1.0" encoding="utf-8"?>
<!-- Generator: Adobe Illustrator 17.0.0, SVG Export Plug-In . SVG Version: 6.00 Build 0)  -->
<!DOCTYPE svg PUBLIC "-//W3C//DTD SVG 1.1//EN" "http://www.w3.org/Graphics/SVG/1.1/DTD/svg11.dtd">
<svg version="1.1" id="Calque_1" xmlns="http://www.w3.org/2000/svg" xmlns:xlink="http://www.w3.org/1999/xlink" x="0px" y="0px"
	 width="40px" height="40px" viewBox="0 0 40 40" enable-background="new 0 0 40 40" xml:space="preserve">
<circle fill="#FFFFFF" cx="20" cy="20" r="18.853"/>
<path fill="#181818" d="M20,2c9.925,0,18,8.075,18,18s-8.075,18-18,18S2,29.925,2,20S10.075,2,20,2 M20,0C8.954,0,0,8.954,0,20
	s8.954,20,20,20s20-8.954,20-20S31.046,0,20,0L20,0z"/>
<g>
	<path fill="#181818" d="M25.435,10.866l1.143,2.827l-0.19,0.337v2.168l-0.967,2.49l-1.685,1.685l-1.348,0.894l-1.333,0.85
		l-0.688,1.113l-0.337,0.996l-0.103,1.157l-2.168-0.264l0.132-1.523l0.557-1.67l1.157-1.846l1.758-1.113l1.128-0.747l1.157-1.172
		l0.557-1.436v-1.743l-0.557-1.421l-0.952-1.04l-1.421-0.776l-1.655-0.205l-1.553,0.205l-1.611,0.659l-1.201,0.776l-0.278,0.322
		l-1.553-1.846l0.513-0.615l1.641-1.055l2.021-0.806l2.021-0.278l2.241,0.278l2.051,1.128L25.435,10.866z M18.228,28.65h1.245
		l0.85,1.011v1.494l-0.85,1.055h-1.245l-0.864-1.055v-1.494L18.228,28.65z"/>
</g>
</svg>
