<?xml version="1.0" encoding="utf-8"?>
<!-- Generator: Adobe Illustrator 17.0.0, SVG Export Plug-In . SVG Version: 6.00 Build 0)  -->
<!DOCTYPE svg PUBLIC "-//W3C//DTD SVG 1.1//EN" "http://www.w3.org/Graphics/SVG/1.1/DTD/svg11.dtd">
<svg version="1.1" id="Calque_1" xmlns="http://www.w3.org/2000/svg" xmlns:xlink="http://www.w3.org/1999/xlink" x="0px" y="0px"
	 width="42px" height="42px" viewBox="0 0 42 42" enable-background="new 0 0 42 42" xml:space="preserve">
<rect fill="#FFFFFF" width="42" height="42"/>
<g>
	<path d="M71.903,27.167v-2.825c1.032-0.048,1.842-0.273,2.43-0.675c0.588-0.402,0.882-1.011,0.882-1.827v-0.252
		c0-0.672-0.201-1.176-0.603-1.512c-0.402-0.336-0.952-0.504-1.647-0.504c-0.72,0-1.296,0.198-1.728,0.594s-0.732,0.9-0.9,1.512
		l-1.35-0.504c0.12-0.396,0.288-0.771,0.504-1.125c0.216-0.354,0.489-0.663,0.819-0.927s0.72-0.474,1.17-0.63
		c0.45-0.156,0.963-0.234,1.539-0.234s1.095,0.081,1.557,0.243s0.855,0.39,1.179,0.684s0.576,0.651,0.756,1.071
		c0.18,0.42,0.27,0.888,0.27,1.404c0,0.564-0.102,1.059-0.306,1.485s-0.468,0.789-0.792,1.089c-0.324,0.3-0.693,0.543-1.107,0.729
		c-0.414,0.187-0.831,0.315-1.251,0.387v1.817H71.903z M72.678,31.199c-0.492,0-0.837-0.102-1.035-0.306
		c-0.198-0.204-0.297-0.462-0.297-0.774v-0.324c0-0.312,0.099-0.569,0.297-0.773s0.543-0.306,1.035-0.306
		c0.492,0,0.837,0.102,1.035,0.306c0.198,0.204,0.297,0.462,0.297,0.773v0.324c0,0.312-0.099,0.57-0.297,0.774
		C73.514,31.098,73.169,31.199,72.678,31.199z"/>
</g>
<rect x="-57" y="-24.833" fill="none" width="22.333" height="24"/>
<g enable-background="new    ">
	<path d="M26.249,16.551c0,1.75-0.874,3.324-2.499,4.949c-1.8,1.75-2.175,2.574-2.225,4.274h-1.55C20.1,23.824,20.5,22.9,22.275,21
		c1.649-1.8,2.25-2.899,2.25-4.449c0-1.999-1.3-3.273-3.35-3.273c-2.249,0-3.649,1.475-3.824,3.999h-1.6
		c0.1-3.175,2.299-5.249,5.474-5.249C24.474,12.028,26.249,14.028,26.249,16.551z M21.95,28.773c0,0.699-0.5,1.199-1.2,1.199
		c-0.675,0-1.175-0.5-1.175-1.199c0-0.675,0.5-1.175,1.175-1.175C21.45,27.598,21.95,28.098,21.95,28.773z"/>
</g>
<g>
	<path d="M37.075-29.619c0.125,0.125,0.201,0.275,0.201,0.6c0,0.575-0.476,0.875-1.051,0.875c-0.475,0-1.225-0.45-1.225-1.325
		c0-0.95,0.625-1.85,1.525-2.449c0.875-0.625,2.374-1.275,3.974-1.275c3.05,0,4.774,1.825,4.774,4.274
		c0,1.975-1.9,3.225-3.275,3.974c-0.725,0.4-1.273,0.825-1.549,1.25c-0.4,0.625-0.5,0.85-0.5,1.45v0.925
		c0,0.175-0.175,0.25-0.425,0.25s-0.399-0.075-0.399-0.25v-0.975c0-1.075,0.1-2.375,1.999-3.649c1.374-0.925,1.725-1.7,1.725-2.875
		c0-1.85-0.925-3.449-2.874-3.449s-3.074,1.25-3.074,2C36.901-29.895,36.95-29.744,37.075-29.619z M39.625-19.472
		c0.824,0,1.523,0.699,1.523,1.5c0,0.799-0.699,1.499-1.523,1.499c-0.826,0-1.525-0.7-1.525-1.499
		C38.1-18.772,38.799-19.472,39.625-19.472z"/>
</g>
<g enable-background="new    ">
	<path d="M4.952-37.454c0,2.301-1.12,4.374-3.454,6.709C-0.506-28.74-1-27.851-1.099-26.241h-2.827
		c0.198-1.94,0.789-3.156,2.631-5.261c2.334-2.663,3.091-3.978,3.091-5.952c0-2.269-1.414-3.782-3.782-3.782
		c-2.467,0-4.143,1.611-4.341,4.671h-2.958c0.131-4.209,3.091-6.907,7.4-6.907C2.52-43.472,4.952-40.841,4.952-37.454z
		 M-0.407-21.966c0,1.218-0.889,2.105-2.105,2.105c-1.218,0-2.105-0.889-2.105-2.105c0-1.216,0.889-2.105,2.105-2.105
		C-1.295-24.072-0.407-23.183-0.407-21.966z"/>
</g>
<text transform="matrix(1 0 0 1 92.5 9.2829)" font-family="'Aileron-Light'" font-size="25">?</text>
</svg>
