<svg xmlns="http://www.w3.org/2000/svg" xmlns:xlink="http://www.w3.org/1999/xlink" version="1.1" width="40" height="40" enable-background="new 0 0 40 40" xml:space="preserve" style=""><rect id="backgroundrect" width="100%" height="100%" x="0" y="0" fill="none" stroke="none"/>


<g class="currentLayer" style=""><title>Layer 1</title><g id="svg_1" class="">
	<path fill="#FFFFFF" d="M20,39C9.523,39,1,30.477,1,20S9.523,1,20,1s19,8.523,19,19S30.477,39,20,39z" id="svg_2"/>
	<g id="svg_3">
		<path fill="#262626" d="M20,2c9.925,0,18,8.075,18,18s-8.075,18-18,18S2,29.925,2,20S10.075,2,20,2 M20,0C8.954,0,0,8.954,0,20    s8.954,20,20,20s20-8.954,20-20S31.046,0,20,0L20,0z" id="svg_4"/>
	</g>
</g><g id="svg_5" class="">
	<path fill="#262626" d="M20,6.33181738281246 c-3.063,0 -5.569,2.5060000000000002 -5.569,5.569 s2.5060000000000002,5.569 5.569,5.569 s5.569,-2.5060000000000002 5.569,-5.569 S23.063,6.33181738281246 20,6.33181738281246 zM20,8.452817382812555 c1.917,0 3.447,1.5310000000000001 3.447,3.447 c0,1.917 -1.5310000000000001,3.448 -3.447,3.448 s-3.447,-1.5310000000000001 -3.447,-3.448 C16.553,9.983817382812504 18.083,8.452817382812555 20,8.452817382812555 zM20,19.060817382812502 c-5.846,0 -10.608,4.7620000000000005 -10.608,10.608 h2.122 c0,-4.699 3.787,-8.486 8.486,-8.486 s8.486,3.787 8.486,8.486 h2.122 C30.608,23.822817382812445 25.846,19.060817382812502 20,19.060817382812502 L20,19.060817382812502 z" id="svg_6"/>
</g><path fill="#eb1a1a" fill-opacity="1" stroke="#242424" stroke-opacity="1" stroke-width="2" stroke-dasharray="none" stroke-linejoin="round" stroke-linecap="butt" stroke-dashoffset="" fill-rule="nonzero" opacity="1" marker-start="" marker-mid="" marker-end="" d="M7.960142977860739,6.679533396787138 L32.98701188751705,32.48484768067832 " id="svg_7" class=""/></g></svg>