<?xml version="1.0" encoding="utf-8"?>
<!-- Generator: Adobe Illustrator 17.0.0, SVG Export Plug-In . SVG Version: 6.00 Build 0)  -->
<!DOCTYPE svg PUBLIC "-//W3C//DTD SVG 1.1//EN" "http://www.w3.org/Graphics/SVG/1.1/DTD/svg11.dtd">
<svg version="1.1" id="Calque_1" xmlns="http://www.w3.org/2000/svg" xmlns:xlink="http://www.w3.org/1999/xlink" x="0px" y="0px"
	 width="40px" height="40px" viewBox="0 0 40 40" enable-background="new 0 0 40 40" xml:space="preserve">
<circle fill="#FFFFFF" cx="20" cy="20" r="18.853"/>
<g>
	<path fill="#181818" d="M27.65,21.26h-6.33v6.391h-2.67V21.26h-6.3v-2.49h6.3v-6.42h2.67v6.42h6.33V21.26z"/>
</g>
<path fill="#181818" d="M20,2c9.925,0,18,8.075,18,18s-8.075,18-18,18S2,29.925,2,20S10.075,2,20,2 M20,0C8.954,0,0,8.954,0,20
	s8.954,20,20,20s20-8.954,20-20S31.046,0,20,0L20,0z"/>
</svg>
